<svg xmlns="http://www.w3.org/2000/svg" width="1600" height="1000" viewBox="0 0 1600 1000" preserveAspectRatio="xMidYMid slice">
  <defs>
    <linearGradient id="base" x1="0" y1="0" x2="1" y2="1">
      <stop offset="0" stop-color="#170b2b"/>
      <stop offset="0.45" stop-color="#0a0613"/>
      <stop offset="1" stop-color="#1d1036"/>
    </linearGradient>
    <linearGradient id="sheen" x1="0" y1="0" x2="1" y2="0">
      <stop offset="0" stop-color="#a55cff" stop-opacity="0"/>
      <stop offset="0.5" stop-color="#cda0ff" stop-opacity="0.55"/>
      <stop offset="1" stop-color="#a55cff" stop-opacity="0"/>
    </linearGradient>
    <linearGradient id="sheen2" x1="0" y1="0" x2="1" y2="0">
      <stop offset="0" stop-color="#7a3fd0" stop-opacity="0"/>
      <stop offset="0.5" stop-color="#b98aff" stop-opacity="0.22"/>
      <stop offset="1" stop-color="#7a3fd0" stop-opacity="0"/>
    </linearGradient>
    <radialGradient id="glow" cx="0.85" cy="0.15" r="0.9">
      <stop offset="0" stop-color="#9a4dff" stop-opacity="0.35"/>
      <stop offset="1" stop-color="#9a4dff" stop-opacity="0"/>
    </radialGradient>
    <path id="wave" d="M-80,0 C300,-78 560,80 900,-26 S1480,-96 1740,34" fill="none"/>
    <path id="wband" d="M-80,0 C320,-95 720,95 1120,-30 S1620,-90 1760,30 L1760,70 C1620,-30 1120,30 720,155 S320,-35 -80,60 Z" fill="url(#sheen2)"/>
  </defs>
  <rect width="1600" height="1000" fill="url(#base)"/>
  <rect width="1600" height="1000" fill="url(#glow)"/>
  <g opacity="0.5">
    <use href="#wband" y="160"/>
    <use href="#wband" y="430"/>
    <use href="#wband" y="700"/>
    <use href="#wband" y="930"/>
  </g>
  <g stroke="url(#sheen)" stroke-width="2.4" fill="none" opacity="0.5">
    <use href="#wave" y="90"/>
    <use href="#wave" y="170"/>
    <use href="#wave" y="250"/>
    <use href="#wave" y="330"/>
    <use href="#wave" y="410"/>
    <use href="#wave" y="490"/>
    <use href="#wave" y="570"/>
    <use href="#wave" y="650"/>
    <use href="#wave" y="730"/>
    <use href="#wave" y="810"/>
    <use href="#wave" y="890"/>
    <use href="#wave" y="970"/>
  </g>
  <g stroke="url(#sheen)" stroke-width="1" fill="none" opacity="0.22">
    <use href="#wave" y="130"/>
    <use href="#wave" y="210"/>
    <use href="#wave" y="290"/>
    <use href="#wave" y="370"/>
    <use href="#wave" y="450"/>
    <use href="#wave" y="530"/>
    <use href="#wave" y="610"/>
    <use href="#wave" y="690"/>
    <use href="#wave" y="770"/>
    <use href="#wave" y="850"/>
    <use href="#wave" y="930"/>
  </g>
</svg>
